<svg width="292" height="315" viewBox="0 0 292 315" fill="none" xmlns="http://www.w3.org/2000/svg">
<path opacity="0.5" d="M267.794 291.483C294.649 265.847 301.064 213.508 276.19 177.116C255.458 146.785 217.27 115.584 169.149 106.489C121.027 97.3945 78.8692 97.405 60.6372 109.42C45.7171 119.253 52.6525 132.947 57.3319 144.584C63.5784 160.118 64.4986 172.452 38.8027 195.02C9.4691 220.782 1.52938 230.452 0.0597392 255.362C-1.13662 275.622 15.7786 302.874 37.9733 306.779C68.8721 312.215 80.3407 297.856 110.571 288.176C134.821 280.41 151.64 284.041 173.627 298.924C195.611 313.808 228.384 329.103 267.794 291.483Z" fill="url(#paint0_linear_438_3159)"/>
<path opacity="0.3" d="M256.011 63.6105C251.328 75.4661 243.882 43.7525 232.027 39.0694C220.171 34.3863 190.544 36.3886 195.227 24.533C199.91 12.6775 234.462 11.6703 246.317 16.3534C258.173 21.0366 260.694 51.755 256.011 63.6105Z" fill="#03A9F4"/>
<circle opacity="0.1" cx="234.318" cy="240.108" r="9.89163" fill="#03A9F4"/>
<circle opacity="0.1" cx="217.832" cy="60.4107" r="9.89163" fill="#03A9F4"/>
<circle opacity="0.1" cx="29.8916" cy="123.058" r="9.89163" fill="#03A9F4"/>
<rect x="159.707" y="64.687" width="106.419" height="141.892" rx="18" transform="rotate(30 159.707 64.687)" fill="#B5D4FF"/>
<ellipse opacity="0.1" cx="89.2411" cy="213.731" rx="18.1347" ry="18.1347" fill="#03A9F4"/>
<rect x="84.2959" y="73.5991" width="118.7" height="158.266" rx="18" fill="#75A1DE"/>
<circle opacity="0.1" cx="180.739" cy="99.1524" r="28.8506" fill="#301008"/>
<circle cx="187.334" cy="90.9092" r="28.8506" fill="#FFF6F4"/>
<path d="M197.912 85.9374L185.399 98.4512L177.92 90.9723" stroke="#39B070" stroke-width="4" stroke-linecap="round"/>
<rect x="102.43" y="98.3276" width="31.3235" height="31.3235" rx="5" fill="white"/>
<path d="M105.728 154.381H184.036" stroke="white" stroke-width="5"/>
<path d="M105.728 175.813H184.036" stroke="white" stroke-width="5"/>
<path d="M105.728 197.245L148.591 197.245" stroke="white" stroke-width="5"/>
<path d="M220.236 126.907C221.702 126.434 223.129 127.726 222.805 129.231L220.96 137.811C220.636 139.317 218.804 139.907 217.663 138.874L211.154 132.986C210.012 131.953 210.417 130.071 211.882 129.599L220.236 126.907Z" fill="#FBCBCB"/>
<path d="M64.6809 227.924C65.4136 227.688 66.1272 228.334 65.9653 229.086L64.6471 235.216C64.4852 235.969 63.5694 236.264 62.9985 235.747L58.3491 231.541C57.7783 231.024 57.9806 230.084 58.7133 229.848L64.6809 227.924Z" fill="#FBCBCB"/>
<path d="M96.0042 54.8208C96.7369 54.5847 97.4504 55.2302 97.2886 55.9828L95.9703 62.1126C95.8085 62.8652 94.8926 63.1603 94.3218 62.6438L89.6724 58.4373C89.1015 57.9209 89.3039 56.9801 90.0366 56.744L96.0042 54.8208Z" fill="#FBCBCB"/>
<defs>
<linearGradient id="paint0_linear_438_3159" x1="43.0189" y1="321.267" x2="233.606" y2="130.68" gradientUnits="userSpaceOnUse">
<stop stop-color="#4659C1"/>
<stop offset="1" stop-color="#3AD0DE"/>
</linearGradient>
</defs>
</svg>
