<svg width="17" height="17" viewBox="0 0 17 17" fill="none" xmlns="http://www.w3.org/2000/svg">
<path d="M3.92308 3.38477C3.67826 3.38477 3.44347 3.48202 3.27036 3.65513C3.09725 3.82824 3 4.06302 3 4.30784V13.0771C3 13.3219 3.09725 13.5567 3.27036 13.7298C3.44347 13.9029 3.67826 14.0001 3.92308 14.0001H14.0769C14.3217 14.0001 14.5566 13.9029 14.7296 13.7298C14.9027 13.5567 15 13.3219 15 13.0771V4.30784C15 4.06302 14.9027 3.82824 14.7296 3.65513C14.5566 3.48202 14.3217 3.38477 14.0769 3.38477H12.2308" stroke="black" stroke-width="0.88" stroke-linecap="round" stroke-linejoin="round"/>
<path d="M3 6.61572H15" stroke="black" stroke-width="0.88" stroke-linecap="round" stroke-linejoin="round"/>
<path d="M5.76855 2V4.76923" stroke="black" stroke-width="0.88" stroke-linecap="round" stroke-linejoin="round"/>
<path d="M12.2314 2V4.76923" stroke="black" stroke-width="0.88" stroke-linecap="round" stroke-linejoin="round"/>
<path d="M5.76855 3.38477H10.3839" stroke="black" stroke-width="0.88" stroke-linecap="round" stroke-linejoin="round"/>
</svg>
