<svg width="15" height="15" viewBox="0 0 15 15" fill="none" xmlns="http://www.w3.org/2000/svg">
<path d="M13.4148 6.12209C13.4148 9.48108 9.28936 12.4699 8.31394 13.1295C8.1801 13.2201 8.02109 13.2646 7.85635 13.2646C7.69161 13.2646 7.5326 13.2201 7.39876 13.1295C6.42334 12.4699 2.29785 9.48108 2.29785 6.12209C2.29785 3.22932 4.78647 0.884277 7.85635 0.884277C10.9263 0.884277 13.4148 3.22932 13.4148 6.12209Z" stroke="#1C1C1C" stroke-width="0.884307" stroke-linecap="round" stroke-linejoin="round"/>
<path d="M5.83496 5.64587C5.83496 6.15102 6.04792 6.63548 6.42698 6.99267C6.80604 7.34986 7.32016 7.55053 7.85623 7.55053C8.39231 7.55053 8.90643 7.34986 9.28549 6.99267C9.66455 6.63548 9.87751 6.15102 9.87751 5.64587C9.87751 5.14072 9.66455 4.65627 9.28549 4.29907C8.90643 3.94188 8.39231 3.74121 7.85623 3.74121C7.32016 3.74121 6.80604 3.94188 6.42698 4.29907C6.04792 4.65627 5.83496 5.14072 5.83496 5.64587Z" stroke="#1C1C1C" stroke-width="0.884307" stroke-linecap="round" stroke-linejoin="round"/>
</svg>
