<svg width="292" height="215" viewBox="0 0 292 215" fill="none" xmlns="http://www.w3.org/2000/svg">
<path opacity="0.5" d="M267.794 191.483C294.649 165.847 301.064 113.508 276.19 77.1165C255.458 46.7853 217.27 15.5845 169.149 6.48949C121.027 -2.60548 78.8692 -2.59497 60.6372 9.42018C45.7171 19.2528 52.6525 32.9469 57.3319 44.5837C63.5784 60.1181 64.4986 72.4524 38.8027 95.0198C9.4691 120.782 1.52938 130.452 0.0597392 155.362C-1.13662 175.622 15.7786 202.874 37.9733 206.779C68.8721 212.215 80.3407 197.856 110.571 188.176C134.821 180.41 151.64 184.041 173.627 198.924C195.611 213.808 228.384 229.103 267.794 191.483Z" fill="url(#paint0_linear_201_3779)"/>
<path d="M62.1533 50.7143C73.2425 40.8377 81.3867 46.7287 87.4517 53.3134C92.2858 58.5623 92.9604 59.7252 96.9537 65.1633C97.5462 65.9707 98.0019 66.867 98.0211 67.8685C98.1329 73.8799 101.209 99.2976 97.7898 108.068C93.8042 118.291 44.6523 122.97 44.6523 122.97L62.1533 50.7143Z" fill="#303C60"/>
<path d="M93.6321 113.888C93.3646 113.888 93.14 113.678 93.1267 113.407C93.1123 113.128 93.3273 112.89 93.6073 112.876C95.0655 112.802 96.2523 112.146 97.2365 110.871C102.747 103.731 99.6493 79.8917 96.9489 66.9315C96.8925 66.6573 97.0673 66.3897 97.3416 66.3324C97.6139 66.2741 97.8834 66.4509 97.9407 66.7251C98.5303 69.5555 100.502 79.6031 101.117 90.0684C101.75 100.817 100.714 108.024 98.0382 111.49C96.8791 112.992 95.4047 113.799 93.6579 113.888C93.6493 113.888 93.6407 113.888 93.6321 113.888Z" fill="#303C60"/>
<path d="M66.3127 47.7695C45 59.5525 57.9955 99.4049 30.9648 113.614C23.4761 117.55 0.469192 137.526 15.544 163.863C25.4044 181.09 54.8775 177.378 64.5802 162.13C74.2839 146.882 66.3127 47.7695 66.3127 47.7695Z" fill="#303C60"/>
<path d="M9.59557 138.378C9.57359 138.378 9.55064 138.376 9.5277 138.373C9.25059 138.337 9.05568 138.082 9.09295 137.804C9.11206 137.664 9.57548 134.31 11.7006 129.863C13.6586 125.765 17.4617 119.946 24.4554 115.496C36.9627 107.537 45.2655 100.036 55.081 63.0609C55.1526 62.7905 55.4307 62.63 55.7001 62.7016C55.9706 62.7733 56.1311 63.0504 56.0594 63.3208C51.3161 81.1888 46.6128 93.267 41.2588 101.334C36.2871 108.824 31.171 112.424 24.9991 116.351C12.0064 124.62 10.1144 137.806 10.0972 137.938C10.0628 138.192 9.84497 138.378 9.59557 138.378Z" fill="#303C60"/>
<path d="M10.061 128.057C9.96836 128.057 9.8747 128.031 9.79062 127.979C9.55364 127.83 9.48294 127.516 9.63296 127.28C12.7232 122.388 16.6601 118.376 21.3328 115.353C38.8968 103.994 41.8036 97.4642 56.3099 60.0609C56.4112 59.8 56.7046 59.671 56.9654 59.7723C57.2263 59.8736 57.3553 60.167 57.254 60.4278C50.0014 79.1281 45.6669 90.0864 40.9255 97.8531C35.8333 106.194 30.0866 110.897 21.8822 116.204C17.3338 119.145 13.5001 123.054 10.4891 127.821C10.3936 127.974 10.2292 128.057 10.061 128.057Z" fill="#303C60"/>
<path d="M65.5773 72.6387C58.2396 87.8788 59.3681 101.708 59.3681 101.708C59.3681 101.708 60.2147 107.07 63.6022 108.199C66.9887 109.328 71.7865 105.941 71.5046 101.425C71.2227 96.9088 72.6341 85.9027 74.3264 81.9515C76.0196 78.0012 65.5773 72.6387 65.5773 72.6387Z" fill="#F09959"/>
<path d="M26.8062 178.533C27.2686 182.692 26.229 182.345 29.9251 183.039C33.6212 183.731 40.2059 181.19 40.2059 181.19L32.8128 167.444L26.8062 178.533Z" fill="#6791C9"/>
<path d="M60.2521 93.5239C58.1728 100.282 42.5791 95.0834 37.1219 96.6429C31.6638 98.2023 26.9854 121.074 26.2057 141.606C25.4259 162.138 26.4656 178.511 28.5449 181.11C30.6241 183.709 64.9305 184.749 68.0494 183.709C71.1684 182.67 42.0602 169.675 42.0602 169.675C42.0602 169.675 40.2409 145.764 42.5801 133.549C44.9193 121.334 65.9711 105.221 65.9711 105.221L60.2521 93.5239Z" fill="#F09959"/>
<path d="M67.5302 95.603C72.9883 103.919 87.2825 102.881 92.2208 109.637C97.1591 116.395 107.555 153.56 107.555 153.56L118.471 115.875C118.471 115.875 127.323 114.388 124.448 120.554C119.335 131.519 117.429 166.895 111.884 171.92C105.718 177.508 99.5814 172.96 96.1194 163.177C92.7702 153.713 84.4244 133.289 78.4464 125.492C72.4685 117.695 65.9717 105.22 65.9717 105.22L67.5302 95.603Z" fill="#F09959"/>
<path d="M43.8799 96.6416C54.7952 109.376 76.107 108.856 80.7854 107.297C85.4638 105.738 85.4638 105.738 85.4638 105.738C85.4638 105.738 89.1025 104.438 92.2214 108.077C95.3404 111.716 102.877 134.587 104.176 139.784C105.476 144.981 107.555 153.558 107.555 153.558C107.555 153.558 101.98 160.251 101.98 167.009C101.98 173.766 104.347 173.824 104.347 173.824C104.347 173.824 97.4196 172.271 95.8602 168.112C94.3007 163.954 80.2665 126.269 80.2665 126.269L41.5416 127.048L42.0615 169.672C42.0615 169.672 38.6826 166.553 34.0042 169.672C29.3258 172.791 27.7664 180.067 28.5461 181.107C29.3258 182.147 26.9866 182.147 26.9866 181.367C26.9866 180.587 22.5681 161.615 25.6871 130.427C28.806 99.2398 34.783 95.8609 38.1628 95.601C41.5397 95.3421 43.8799 96.6416 43.8799 96.6416Z" fill="#75A1DE"/>
<path d="M102.761 173.288C102.834 173.313 102.877 173.313 102.877 173.313C102.877 173.313 102.835 173.304 102.761 173.288Z" fill="#6791C9"/>
<path d="M104.26 154.506C102.007 155.198 98.1951 163.17 98.1951 163.17C98.1951 163.17 89.5311 144.283 86.932 118.118L83.8389 135.869C88.1083 147.33 94.8086 165.316 95.8578 168.115C97.2845 171.919 103.037 173.506 103.825 173.682C103.609 173.608 103.132 173.321 102.738 172.179C102.51 171.971 101.209 171.363 100.965 171.14C98.886 169.235 99.7527 164.729 101.138 159.704C102.528 154.679 106.513 153.812 104.26 154.506Z" fill="#6791C9"/>
<path d="M43.4041 127.013L39.1089 107.375C34.4305 113.96 33.9107 136.485 35.817 151.907C37.3803 164.554 39.7185 167.836 41.3248 169.155C41.7997 169.434 42.0606 169.674 42.0606 169.674L41.5408 127.051L43.4041 127.013Z" fill="#6791C9"/>
<path d="M30.9644 107.202C38.9346 128.688 34.95 133.02 45.4381 158.238C51.2957 172.323 62.5913 182.929 62.5913 182.929C62.5913 182.929 71.6882 185.268 83.1233 184.488C94.5585 183.709 102.931 182.923 102.931 182.923C102.931 182.923 90.9207 175.652 90.4008 170.714C89.881 165.776 87.625 146.189 90.5709 132.328C92.871 121.503 83.3833 110.678 83.3833 110.678L67.5296 109.899L30.9644 107.202Z" fill="#75A1DE"/>
<path opacity="0.5" d="M45.0005 140.124C43.614 135.099 50.8915 141.683 62.8475 142.896C74.8034 144.109 88.1458 142.202 81.5611 144.282C74.9763 146.361 56.9555 143.242 60.2483 149.827C64.1222 157.575 68.6974 165.074 75.3232 169.58C79.6547 172.526 90.0512 175.298 80.0016 173.738C69.952 172.179 59.2087 160.396 54.5303 152.773C49.8519 145.149 45.3092 141.245 45.0005 140.124Z" fill="#6791C9"/>
<path d="M71.4742 99.4475C71.5793 94.2607 72.8445 85.4075 74.3256 81.9522C75.5392 79.1209 70.5235 75.5662 67.5803 73.7774L65.0921 73.6704C64.7127 74.497 64.3573 75.3178 64.0257 76.1329C61.3989 93.3826 69.2602 100.51 73.0127 101.944C74.6324 102.564 76.446 102.632 77.9969 102.492C75.6815 101.67 73.4236 100.733 71.4742 99.4475Z" fill="#E38540"/>
<path d="M66.7142 107.117C65.8122 107.117 64.8767 107.009 63.9479 106.781C61.7797 106.253 56.6063 104.243 55.4023 97.0249C55.3765 96.8682 55.4816 96.7201 55.6383 96.6943C55.7941 96.6685 55.9422 96.7736 55.969 96.9303C57.1156 103.811 62.0262 105.721 64.0836 106.223C67.2808 107.003 70.6731 106.281 71.9745 104.545C73.0189 103.153 72.3921 100.188 72.3854 100.157C72.352 100.002 72.4504 99.8496 72.6052 99.8161C72.759 99.7827 72.9129 99.8801 72.9473 100.036C72.976 100.168 73.6362 103.288 72.4341 104.89C71.3687 106.31 69.1728 107.117 66.7142 107.117Z" fill="#F5CE5C"/>
<path d="M91.1705 79.419C89.4075 88.728 85.3359 96.2387 78.4454 94.8235C71.5548 93.4083 64.3108 83.5747 66.2181 74.2934C68.1244 65.0121 75.2557 58.6357 82.1462 60.0518C89.0377 61.467 93.5202 67.014 91.1705 79.419Z" fill="#F09959"/>
<path d="M115.695 125.396C115.695 125.396 102.96 159.617 102.353 163.17C101.746 166.721 102.959 168.975 103.306 168.975C103.651 168.975 114.482 150.434 114.482 150.434L115.695 125.396Z" fill="#F09959"/>
<path d="M116.216 123.893C117.255 120.427 115.639 116.038 115.639 116.038L120.259 116.615L116.216 123.893Z" fill="#F09959"/>
<path d="M121.292 117.982H108.399C107.616 117.982 107.054 117.228 107.278 116.478L115.416 89.1896C115.565 88.6937 116.02 88.3545 116.537 88.3545H129.431C130.213 88.3545 130.775 89.1084 130.552 89.8585L122.413 117.147C122.266 117.643 121.81 117.982 121.292 117.982Z" fill="#4381DB"/>
<path d="M122.909 117.982H110.017C109.234 117.982 108.673 117.228 108.896 116.478L117.036 89.1896C117.184 88.6937 117.64 88.3545 118.156 88.3545H131.049C131.831 88.3545 132.393 89.1084 132.17 89.8585L124.031 117.147C123.882 117.643 123.426 117.982 122.909 117.982Z" fill="#2E5B9A"/>
<path d="M113.575 98.2032C112.201 103.156 111.275 107.223 111.509 107.288C111.742 107.353 113.045 103.39 114.419 98.4373C115.794 93.4846 116.719 89.4178 116.486 89.3528C116.253 89.2888 114.951 93.2515 113.575 98.2032Z" fill="#9CBEED"/>
<path d="M122.338 126.088C122.719 121.589 126.617 117.37 128.1 116.024C128.551 115.615 128.805 115.035 128.799 114.425C128.777 112.182 128.678 106.887 128.214 106.267C127.624 105.48 126.148 95.3406 125.458 95.7343C124.769 96.128 125.654 104.987 125.654 104.987C125.654 104.987 123.981 104.2 123.095 103.806C122.21 103.412 118.567 107.448 118.567 107.448C118.567 107.448 116.86 111.763 121.528 109.915C127.073 107.72 122.915 113.842 119.218 117.769C116.172 121.006 118.764 121.722 118.764 121.722L121.225 121.623L122.338 126.088Z" fill="#F09959"/>
<path d="M120.942 129.629C120.534 129.629 120.071 129.566 119.605 129.421C118.406 129.047 116.312 127.841 115.758 123.962C115.735 123.806 115.845 123.66 116.002 123.638C116.159 123.616 116.304 123.725 116.326 123.881C116.8 127.197 118.409 128.408 119.673 128.839C120.708 129.191 121.563 129.029 121.779 128.908C121.792 128.81 121.857 128.721 121.957 128.681C122.104 128.622 122.271 128.693 122.33 128.841C122.388 128.986 122.354 129.147 122.238 129.272C122.038 129.489 121.55 129.629 120.942 129.629Z" fill="#F5CE5C"/>
<path d="M120.458 128.515C120.076 128.515 119.676 128.486 119.296 128.431C117.068 128.107 115.575 126.976 115.2 125.329C115.164 125.174 115.261 125.02 115.416 124.985C115.57 124.951 115.724 125.047 115.76 125.201C116.118 126.773 117.547 127.442 118.683 127.726C120.275 128.123 121.77 127.878 121.949 127.672C122.027 127.534 122.198 127.489 122.338 127.567C122.476 127.645 122.522 127.824 122.445 127.962C122.23 128.343 121.394 128.515 120.458 128.515Z" fill="#F5CE5C"/>
<path d="M83.2618 84.2636C83.1214 84.2636 82.979 84.2531 82.8376 84.2311C80.6513 83.8957 79.3297 81.0749 79.8304 77.8088C80.0626 76.2924 80.6637 74.9183 81.5218 73.9388C82.4362 72.8973 83.5361 72.4147 84.6216 72.581C86.8079 72.9154 88.1285 75.7362 87.6278 79.0033C87.1615 82.0572 85.2905 84.2636 83.2618 84.2636ZM84.2069 73.5623C83.5552 73.5623 82.8815 73.9264 82.2843 74.6068C81.5514 75.4429 81.0354 76.6335 80.8319 77.9617C80.4315 80.5761 81.4205 82.9879 82.9905 83.2287C84.5604 83.4705 86.2269 81.4638 86.6273 78.8494C87.0277 76.235 86.0387 73.8232 84.4687 73.5824C84.3817 73.569 84.2948 73.5623 84.2069 73.5623Z" fill="#1C1C1C"/>
<path d="M90.4693 84.2772C90.3996 84.2772 90.3308 84.2724 90.262 84.2609C88.8306 84.0421 88.0537 81.6169 88.4942 78.7407C88.9347 75.8635 90.4053 73.7785 91.8329 74.0011C92.5706 74.1139 93.1516 74.7895 93.4679 75.9017C93.7555 76.9137 93.8033 78.1998 93.6007 79.5223C93.1812 82.26 91.8329 84.2772 90.4693 84.2772ZM91.6217 74.7513C90.778 74.7513 89.6313 76.3738 89.251 78.8563C88.8564 81.4335 89.5281 83.3742 90.3776 83.5041C91.2328 83.6303 92.4483 81.9829 92.8439 79.4067C93.0302 78.1903 92.9901 77.0207 92.7321 76.112C92.5056 75.316 92.1358 74.8229 91.7173 74.7589C91.6858 74.7532 91.6533 74.7513 91.6217 74.7513Z" fill="#1C1C1C"/>
<path d="M80.8689 75.6522C80.823 75.6522 80.7762 75.6455 80.7294 75.6331L63.7482 70.7817C63.4787 70.7043 63.3239 70.4243 63.4004 70.1558C63.4768 69.8873 63.7568 69.7316 64.0263 69.808L81.0074 74.6594C81.2759 74.7358 81.4327 75.0167 81.3553 75.2853C81.2922 75.5079 81.0887 75.6522 80.8689 75.6522Z" fill="#1C1C1C"/>
<path d="M92.9969 65.0963C66.7173 80.5753 65.2734 70.1789 65.2734 70.1789L66.8329 55.3936L82.4276 56.2593L92.9969 65.0963Z" fill="#303C60"/>
<path d="M67.3061 73.6144C67.9176 76.2307 67.0825 78.6626 65.4418 79.0467C63.8001 79.4299 61.9741 77.6201 61.3625 75.0038C60.751 72.3865 61.5861 69.9546 63.2277 69.5714C64.8684 69.1873 66.6955 70.9981 67.3061 73.6144Z" fill="#F09959"/>
<path d="M65.5062 77.051C65.5062 77.6224 65.0428 78.0858 64.4714 78.0858C63.9 78.0858 63.4365 77.6224 63.4365 77.051C63.4365 76.4796 63.9 76.0161 64.4714 76.0161C65.0428 76.0161 65.5062 76.4796 65.5062 77.051Z" fill="#F5CE5C"/>
<path d="M268.242 187.639H5.36159C4.03145 187.639 2.95264 186.56 2.95264 185.23C2.95264 183.9 4.03145 182.821 5.36159 182.821H268.242C269.572 182.821 270.65 183.9 270.65 185.23C270.65 186.56 269.573 187.639 268.242 187.639Z" fill="#2E5B9A"/>
<path d="M67.6752 182.356C67.6752 182.356 57.7651 182.482 57.6399 183.36C57.5147 184.238 58.0164 184.614 61.529 185.241C65.0407 185.868 104.556 186.119 104.932 185.868C105.309 185.618 116.849 182.857 116.849 182.857L89.1264 182.355H67.6752V182.356Z" fill="#DBE5EB"/>
<path d="M73.0703 175.76C73.0703 175.76 80.1749 172.641 82.2542 174.027C84.3335 175.413 90.3401 181.767 90.3401 181.767L73.0703 175.76Z" fill="#F09959"/>
<path d="M89.9485 182.333C89.8128 182.502 89.6121 182.573 89.4984 182.489L74.8803 171.606C74.093 171.02 73.7184 170.123 74.0968 169.65C74.4752 169.177 75.4326 169.345 76.177 169.985L90.001 181.861C90.109 181.953 90.0842 182.165 89.9485 182.333Z" fill="#2E5B9A"/>
<path d="M51.5848 174.432C51.5848 174.432 63.3677 179.11 64.7543 179.11C66.1398 179.11 73.8798 173.912 76.4789 174.605C79.078 175.297 91.785 181.709 91.4381 182.229C91.0922 182.749 87.4525 183.961 76.7101 183.615C65.9678 183.269 48.4668 181.709 48.4668 181.709L51.5848 174.432Z" fill="#F09959"/>
<path d="M201.08 183.021H150.189C149.928 183.021 149.714 182.807 149.714 182.546V173.336C149.714 173.074 149.928 172.861 150.189 172.861H201.08C201.735 172.861 202.272 173.397 202.272 174.054V181.83C202.272 182.484 201.736 183.021 201.08 183.021Z" fill="#F37168"/>
<path d="M195.317 174.579H149.72C149.401 175.109 149.213 175.726 149.213 176.387V179.492C149.213 180.153 149.4 180.771 149.72 181.301H195.317C196.935 181.301 198.26 179.977 198.26 178.358V177.523C198.26 175.903 196.935 174.579 195.317 174.579Z" fill="#F2E5DE"/>
<path d="M198.805 172.859H160.349C160.173 172.859 160.028 172.715 160.028 172.538V167.033C160.028 166.856 160.173 166.712 160.349 166.712H198.805C199.247 166.712 199.609 167.074 199.609 167.517V172.053C199.609 172.498 199.247 172.859 198.805 172.859Z" fill="#7BCEE8"/>
<path d="M194.371 167.753H160.035C159.794 168.074 159.652 168.448 159.652 168.848V170.725C159.652 171.126 159.794 171.498 160.035 171.819H194.371C195.591 171.819 196.587 171.019 196.587 170.039V169.534C196.588 168.554 195.591 167.753 194.371 167.753Z" fill="#F2E5DE"/>
<path d="M203.668 42.4268H164.718C163.476 42.4268 162.83 41.411 163.282 40.1688L169.172 23.9865C169.624 22.7443 171.01 21.7285 172.252 21.7285H211.202C212.443 21.7285 213.09 22.7443 212.638 23.9865L206.748 40.1688C206.295 41.4101 204.91 42.4268 203.668 42.4268Z" fill="#75A1DE"/>
<path d="M202.347 40.7322H167.271C166.195 40.7322 165.636 39.8522 166.027 38.7762L170.904 25.3765C171.296 24.3005 172.496 23.4214 173.571 23.4214H208.647C209.723 23.4214 210.282 24.3015 209.891 25.3765L205.014 38.7762C204.623 39.8522 203.423 40.7322 202.347 40.7322Z" fill="white"/>
<path d="M180.176 41.4854C176.946 50.0156 171.973 52.6501 171.973 52.6501C171.973 52.6501 175.509 47.7576 174.997 45.3745C174.485 42.9913 172.592 41.987 172.592 41.987L180.176 41.4854Z" fill="#75A1DE"/>
<path d="M205.164 28.1889H182.553C182.182 28.1889 181.989 27.885 182.124 27.5143L182.135 27.4827C182.27 27.112 182.684 26.8081 183.055 26.8081H205.666C206.037 26.8081 206.23 27.112 206.095 27.4827L206.084 27.5143C205.949 27.885 205.535 28.1889 205.164 28.1889Z" fill="#75A1DE"/>
<path d="M204.115 31.0736H181.503C181.132 31.0736 180.939 30.7707 181.074 30.399L181.086 30.3675C181.22 29.9967 181.634 29.6929 182.005 29.6929H204.616C204.987 29.6929 205.18 29.9967 205.045 30.3675L205.034 30.399C204.899 30.7707 204.485 31.0736 204.115 31.0736Z" fill="#75A1DE"/>
<path d="M202.927 34.3349H180.317C179.946 34.3349 179.753 34.031 179.888 33.6603L179.899 33.6287C180.034 33.258 180.448 32.9541 180.818 32.9541H203.43C203.8 32.9541 203.993 33.257 203.859 33.6287L203.847 33.6603C203.712 34.032 203.298 34.3349 202.927 34.3349Z" fill="#75A1DE"/>
<path d="M179.028 30.509C178.132 32.9686 175.779 34.9619 173.769 34.9619C171.76 34.9619 170.857 32.9677 171.752 30.509C172.647 28.0494 175.002 26.0562 177.011 26.0562C179.02 26.0562 179.923 28.0494 179.028 30.509Z" fill="#75A1DE"/>
<path d="M181.53 84.5112H179.6C179.192 84.5112 178.982 84.1806 179.131 83.7735L179.71 82.1835C179.858 81.7755 180.309 81.4448 180.717 81.4448H182.647C183.055 81.4448 183.265 81.7755 183.116 82.1835L182.537 83.7735C182.388 84.1806 181.937 84.5112 181.53 84.5112Z" fill="#75A1DE"/>
<path d="M187.723 84.5112H185.792C185.385 84.5112 185.174 84.1806 185.323 83.7735L185.902 82.1835C186.05 81.7755 186.501 81.4448 186.909 81.4448H188.84C189.248 81.4448 189.458 81.7755 189.309 82.1835L188.731 83.7735C188.582 84.1806 188.131 84.5112 187.723 84.5112Z" fill="#75A1DE"/>
<path d="M193.916 84.5112H191.986C191.578 84.5112 191.368 84.1806 191.517 83.7735L192.095 82.1835C192.243 81.7755 192.694 81.4448 193.102 81.4448H195.032C195.439 81.4448 195.649 81.7755 195.501 82.1835L194.923 83.7735C194.774 84.1806 194.324 84.5112 193.916 84.5112Z" fill="#75A1DE"/>
<path d="M156.988 72.2813H118.038C116.796 72.2813 116.15 71.2655 116.602 70.0233L122.492 53.841C122.944 52.5988 124.331 51.583 125.572 51.583H164.521C165.764 51.583 166.41 52.5988 165.958 53.841L160.068 70.0233C159.616 71.2655 158.23 72.2813 156.988 72.2813Z" fill="#75A1DE"/>
<path d="M155.667 70.5877H120.592C119.516 70.5877 118.956 69.7076 119.348 68.6326L124.225 55.2329C124.617 54.1569 125.817 53.2769 126.893 53.2769H161.968C163.044 53.2769 163.603 54.1569 163.212 55.2329L158.335 68.6326C157.944 69.7076 156.743 70.5877 155.667 70.5877Z" fill="white"/>
<path d="M120.012 71.3403C117.032 79.8706 120.088 82.505 120.088 82.505C120.088 82.505 120.112 77.6126 122.359 75.2294C124.607 72.8463 127.23 71.842 127.23 71.842L120.012 71.3403Z" fill="#75A1DE"/>
<path d="M146.149 59.1733H127.069C126.728 59.1733 126.55 58.8943 126.674 58.5522L126.725 58.4146C126.849 58.0734 127.231 57.7935 127.572 57.7935H146.651C146.992 57.7935 147.17 58.0725 147.046 58.4146L146.995 58.5522C146.871 58.8933 146.49 59.1733 146.149 59.1733Z" fill="#75A1DE"/>
<path d="M145.098 62.058H126.019C125.677 62.058 125.499 61.779 125.624 61.4369L125.675 61.2993C125.799 60.9582 126.18 60.6782 126.522 60.6782H145.602C145.943 60.6782 146.122 60.9582 145.996 61.2993L145.946 61.4369C145.821 61.779 145.439 62.058 145.098 62.058Z" fill="#75A1DE"/>
<path d="M143.91 65.3198H124.831C124.49 65.3198 124.312 65.0407 124.436 64.6986L124.487 64.5611C124.611 64.2199 124.992 63.9399 125.333 63.9399H144.413C144.754 63.9399 144.932 64.2199 144.808 64.5611L144.757 64.6986C144.633 65.0398 144.252 65.3198 143.91 65.3198Z" fill="#75A1DE"/>
<path d="M192.468 90.5961H154.875C154.202 90.5961 153.851 90.3171 154.097 89.975L154.196 89.8374C154.441 89.4953 155.192 89.2163 155.865 89.2163H193.458C194.131 89.2163 194.482 89.4953 194.236 89.8374L194.137 89.975C193.892 90.3161 193.141 90.5961 192.468 90.5961Z" fill="#75A1DE"/>
<path d="M190.4 95.3622H152.806C152.134 95.3622 151.783 95.0832 152.029 94.7411L152.128 94.6035C152.373 94.2624 153.124 93.9824 153.796 93.9824H191.39C192.063 93.9824 192.413 94.2614 192.168 94.6035L192.069 94.7411C191.824 95.0832 191.073 95.3622 190.4 95.3622Z" fill="#75A1DE"/>
<path d="M152.776 66.4485H150.016C148.774 66.4485 148.128 65.4327 148.58 64.1905L150.634 58.5461C151.086 57.3038 152.473 56.2881 153.714 56.2881H156.474C157.716 56.2881 158.362 57.3038 157.91 58.5461L155.855 64.1905C155.403 65.4327 154.018 66.4485 152.776 66.4485Z" fill="#75A1DE"/>
<path d="M249.054 175.541C254.064 148.052 252.967 138.219 239.548 115.781C226.129 93.3432 224.847 51.5864 219.79 63.8328C214.732 76.0802 215.412 106.836 231.265 121.76C247.118 136.685 249.251 143.368 250.193 149.444C251.135 155.519 247.929 174.19 247.929 174.19L249.054 175.541Z" fill="#9CD499"/>
<path d="M251.564 157.826C251.571 157.72 251.579 157.615 251.587 157.51C251.292 155.255 249.7 143.656 247.497 139.08C245.051 133.999 234.326 125.155 231.315 114.054C228.304 102.952 223.532 94.3472 220.401 87.3343C216.268 78.075 218.527 65.7655 221.944 61.7675C221.861 61.7121 221.778 61.6758 221.694 61.6528L220.559 62.3389C220.311 62.6953 220.055 63.1884 219.79 63.8325C214.732 76.0798 215.412 106.835 231.265 121.76C247.118 136.685 249.251 143.368 250.194 149.444C250.448 151.082 250.399 153.638 250.195 156.496L251.564 157.826Z" fill="#74B570"/>
<path d="M242.205 170.691C245.933 138.385 244.691 127.203 237.484 101.36C230.277 75.5156 277.244 16.6209 275.753 26.81C274.262 36.9981 269.292 62.3452 256.371 78.2494C243.449 94.1537 242.455 107.076 244.939 120.743C247.424 134.41 244.442 166.218 244.442 166.218L242.952 171.934L242.205 170.691Z" fill="#9CD499"/>
<path d="M243.921 157.266C243.917 157.266 243.913 157.266 243.909 157.266C243.737 157.26 243.602 157.115 243.609 156.943C243.612 156.843 243.982 146.884 243.797 138.71C243.61 130.527 241.394 116.507 240.045 111.691C238.817 107.306 237.272 92.5993 244.77 77.4117C248.504 69.8466 251.485 65.064 255.61 58.4439C259.688 51.9012 264.763 43.7589 272.813 29.4151C272.897 29.2651 273.087 29.2116 273.237 29.2957C273.388 29.3797 273.441 29.5699 273.357 29.7199C265.299 44.0762 260.22 52.2252 256.14 58.7736C252.023 65.3784 249.05 70.1504 245.329 77.6869C237.918 92.6987 239.436 107.201 240.645 111.522C242.002 116.368 244.234 130.469 244.42 138.694C244.606 146.888 244.235 156.865 244.232 156.965C244.226 157.135 244.087 157.266 243.921 157.266Z" fill="#74B570"/>
<path d="M243.448 182.297C245.685 160.677 246.058 171.339 236.77 141.965C226.14 108.344 264.073 78.4976 270.286 90.6743C276.498 102.851 283.704 141.12 280.971 139.878C278.237 138.635 260.097 103.099 259.6 104.591C259.103 106.083 234.998 118.507 235.993 131.18C236.986 143.854 246.181 163.983 246.181 163.983L245.932 182.546L243.448 182.297Z" fill="#9CD499"/>
<path d="M245.932 182.292C245.922 182.292 245.911 182.291 245.901 182.29L243.415 182.042C243.333 182.034 243.257 181.993 243.205 181.929C243.153 181.865 243.129 181.783 243.136 181.7C243.395 179.202 243.633 177.099 243.825 175.409C244.866 166.23 244.866 166.23 242.017 158.367C240.73 154.813 238.967 149.948 236.472 142.059C234.607 136.159 234.125 130.044 235.04 123.886C235.846 118.456 237.71 113.103 240.579 107.976C245.499 99.1829 253.242 91.6302 260.306 88.7349C265.214 86.7225 268.954 87.377 270.563 90.5323C273.2 95.7009 276.352 106.284 278.996 118.842C280.522 126.088 282.765 138.709 281.491 140.042C281.318 140.223 281.076 140.268 280.842 140.162C279.35 139.483 274.413 130.771 267.601 118.536C264.184 112.402 260.66 106.072 259.709 104.98C259.325 105.406 258.357 106.073 256.352 107.434C249.6 112.013 235.55 121.544 236.304 131.157C237.283 143.63 246.374 163.652 246.466 163.853C246.485 163.895 246.494 163.941 246.494 163.987L246.246 181.987C246.245 182.074 246.207 182.157 246.142 182.215C246.083 182.265 246.009 182.292 245.932 182.292ZM243.79 181.452L245.626 181.636L245.868 164.046C245.295 162.777 236.64 143.431 235.682 131.203C234.899 121.229 249.152 111.561 256.001 106.915C257.628 105.812 259.165 104.769 259.307 104.481C259.352 104.345 259.473 104.246 259.618 104.233C260.221 104.177 261.412 106.139 268.144 118.23C272.975 126.907 279.579 138.767 281.066 139.575C281.181 139.389 281.519 138.37 280.861 133.122C280.385 129.328 279.513 124.336 278.406 119.067C275.769 106.516 272.628 95.9541 270.006 90.8142C268.562 87.9848 265.112 87.4372 260.541 89.3111C248.154 94.3879 229.175 116.914 237.066 141.869C239.556 149.746 241.317 154.605 242.602 158.153C245.5 166.154 245.5 166.154 244.444 175.477C244.252 177.181 244.035 179.101 243.79 181.452Z" fill="#74B570"/>
<path d="M251.259 183.193H239.982C239.207 183.193 238.514 182.752 238.441 182.204L234.651 153.717C234.476 152.403 235.345 151.295 236.587 151.295H254.653C255.895 151.295 256.764 152.403 256.589 153.717L252.8 182.204C252.727 182.752 252.034 183.193 251.259 183.193Z" fill="#7BCEE8"/>
<path d="M249.921 182.21H248.306C247.517 182.21 246.88 181.753 246.894 181.184L247.464 156.577C247.493 155.353 248.496 154.323 249.694 154.323H252.143C253.34 154.323 254.21 155.353 254.08 156.577L251.464 181.184C251.405 181.753 250.71 182.21 249.921 182.21Z" fill="#A2DFF2"/>
<path d="M237.899 142.341L238.098 141.994C237.368 139.357 236.756 136.731 236.366 134.275C236.77 138.917 237.899 142.341 237.899 142.341Z" fill="#74B570"/>
<path d="M237.899 121.517C237.166 123.35 236.72 125.258 236.475 127.145C239.803 116.217 258.34 106.352 259.544 104.688L259.758 104.27C252.796 102.325 241.662 112.109 237.899 121.517Z" fill="#74B570"/>
<path d="M280.988 139.204C280.847 139.204 280.72 139.108 280.685 138.967L277.316 125.263C274.687 114.526 271.413 101.162 267.739 95.2139C267.133 94.2335 264.487 92.9072 260.739 93.1709C255.674 93.5293 245.91 97.0294 237.432 116.437C237.363 116.594 237.178 116.666 237.021 116.598C236.863 116.529 236.791 116.345 236.86 116.187C245.471 96.4791 255.49 92.9177 260.696 92.5489C264.746 92.2641 267.564 93.7433 268.27 94.8861C271.996 100.919 275.145 113.774 277.923 125.115L281.292 138.818C281.333 138.985 281.23 139.154 281.063 139.195C281.038 139.201 281.012 139.204 280.988 139.204Z" fill="#74B570"/>
<path d="M271.111 121.328C271.099 121.328 271.087 121.328 271.075 121.326C270.904 121.306 270.781 121.151 270.801 120.98C270.814 120.867 272.075 109.604 269.115 97.7591C269.073 97.5919 269.175 97.4228 269.341 97.3807C269.51 97.3396 269.678 97.4409 269.72 97.6072C272.71 109.567 271.434 120.938 271.421 121.051C271.402 121.21 271.268 121.328 271.111 121.328Z" fill="#74B570"/>
<path d="M267.63 114.366C267.618 114.366 267.605 114.365 267.593 114.364C267.422 114.344 267.299 114.19 267.32 114.019C267.332 113.915 268.528 103.602 267.695 95.0813C267.679 94.9093 267.804 94.7574 267.975 94.7402C268.145 94.7211 268.299 94.8491 268.316 95.0202C269.156 103.61 267.951 113.988 267.939 114.092C267.921 114.25 267.786 114.366 267.63 114.366Z" fill="#74B570"/>
<path d="M255.775 59.046C255.659 59.046 255.547 58.981 255.494 58.8692C255.419 58.7135 255.485 58.5281 255.64 58.4526C255.729 58.4096 264.645 54.0494 269.801 44.4738C269.882 44.3218 270.072 44.2655 270.223 44.3467C270.374 44.4279 270.432 44.6171 270.351 44.769C265.095 54.53 256.002 58.9705 255.91 59.0145C255.866 59.0364 255.82 59.046 255.775 59.046Z" fill="#74B570"/>
<path d="M249.189 70.3359C249.044 70.3359 248.914 70.2346 248.884 70.0865C248.85 69.9183 248.958 69.753 249.127 69.7186C249.2 69.7043 256.502 68.139 265.176 61.1262C265.31 61.0183 265.506 61.0393 265.614 61.1721C265.722 61.3059 265.702 61.5027 265.568 61.6107C256.768 68.7267 249.328 70.3139 249.253 70.3292C249.231 70.334 249.21 70.3359 249.189 70.3359Z" fill="#74B570"/>
<path d="M243.747 81.2542C243.619 81.2542 243.543 81.2494 243.521 81.2475C243.349 81.2351 243.22 81.0851 243.233 80.914C243.246 80.742 243.397 80.613 243.567 80.6264C243.618 80.6302 248.65 80.9045 256.716 74.8548C256.855 74.7516 257.05 74.7794 257.153 74.917C257.256 75.0546 257.228 75.2504 257.091 75.3536C249.684 80.9092 244.838 81.2542 243.747 81.2542Z" fill="#74B570"/>
<defs>
<linearGradient id="paint0_linear_201_3779" x1="43.0189" y1="221.267" x2="233.606" y2="30.6798" gradientUnits="userSpaceOnUse">
<stop stop-color="#4659C1"/>
<stop offset="1" stop-color="#3AD0DE"/>
</linearGradient>
</defs>
</svg>
