<svg width="292" height="273" viewBox="0 0 292 273" fill="none" xmlns="http://www.w3.org/2000/svg">
<path opacity="0.5" d="M267.794 249.483C294.649 223.847 301.064 171.508 276.19 135.116C255.458 104.785 217.27 73.5845 169.149 64.4895C121.027 55.3945 78.8692 55.405 60.6372 67.4202C45.7171 77.2528 52.6525 90.9469 57.3319 102.584C63.5784 118.118 64.4986 130.452 38.8027 153.02C9.4691 178.782 1.52938 188.452 0.0597392 213.362C-1.13662 233.622 15.7786 260.874 37.9733 264.779C68.8721 270.215 80.3407 255.856 110.571 246.176C134.821 238.41 151.64 242.041 173.627 256.924C195.611 271.808 228.384 287.103 267.794 249.483Z" fill="url(#paint0_linear_438_3181)"/>
<path d="M105.975 114.154L105.975 115H122.436L122.436 114.154C122.436 107.605 125.038 101.324 129.669 96.6937C134.299 92.063 140.58 89.4615 147.129 89.4615C153.678 89.4615 159.958 92.063 164.589 96.6937C169.22 101.324 171.821 107.605 171.821 114.154V130.615H188.283V114.154C188.283 103.239 183.947 92.7715 176.229 85.0537C168.511 77.3358 158.043 73 147.129 73C136.214 73 125.746 77.3358 118.029 85.0537C110.311 92.7715 105.975 103.239 105.975 114.154Z" fill="#F9F9F9"/>
<path d="M193.769 128H103.231C101.048 128 98.9543 129.018 97.4107 130.831C95.8672 132.644 95 135.103 95 137.667V205.333C95 207.897 95.8672 210.356 97.4107 212.169C98.9543 213.982 101.048 215 103.231 215H193.769C195.952 215 198.046 213.982 199.589 212.169C201.133 210.356 202 207.897 202 205.333V137.667C202 135.103 201.133 132.644 199.589 130.831C198.046 129.018 195.952 128 193.769 128Z" fill="#75A1DE"/>
<path opacity="0.3" d="M255.011 63.6105C250.328 75.4661 242.882 43.7525 231.027 39.0694C219.171 34.3863 189.544 36.3886 194.227 24.533C198.91 12.6775 233.462 11.6703 245.317 16.3534C257.173 21.0366 259.694 51.755 255.011 63.6105Z" fill="#03A9F4"/>
<circle opacity="0.1" cx="216.832" cy="60.4107" r="9.89163" fill="#03A9F4"/>
<circle opacity="0.1" cx="28.8916" cy="123.058" r="9.89163" fill="#03A9F4"/>
<path d="M219.236 126.907C220.702 126.434 222.129 127.726 221.805 129.231L219.96 137.811C219.636 139.317 217.804 139.907 216.663 138.874L210.154 132.986C209.012 131.953 209.417 130.071 210.882 129.599L219.236 126.907Z" fill="#FBCBCB"/>
<path d="M95.0042 54.8208C95.7369 54.5847 96.4504 55.2302 96.2886 55.9828L94.9703 62.1126C94.8085 62.8652 93.8926 63.1603 93.3218 62.6438L88.6724 58.4373C88.1015 57.9209 88.3039 56.9801 89.0366 56.744L95.0042 54.8208Z" fill="#FBCBCB"/>
<path d="M148 183C152.971 183 157 178.971 157 174C157 169.03 152.971 165 148 165C143.029 165 139 169.03 139 174C139 178.971 143.029 183 148 183Z" fill="#F9F9F9"/>
<rect x="145" y="174" width="6" height="20" rx="3" fill="#F9F9F9"/>
<circle opacity="0.1" cx="186.851" cy="224.851" r="28.8506" fill="#301008"/>
<circle cx="188.851" cy="220.851" r="28.8506" fill="#FFF6F4"/>
<path d="M199.429 215.879L186.915 228.393L179.436 220.914" stroke="#39B070" stroke-width="4" stroke-linecap="round"/>
<defs>
<linearGradient id="paint0_linear_438_3181" x1="43.0189" y1="279.267" x2="233.606" y2="88.6798" gradientUnits="userSpaceOnUse">
<stop stop-color="#4659C1"/>
<stop offset="1" stop-color="#3AD0DE"/>
</linearGradient>
</defs>
</svg>
