<svg width="60" height="79" viewBox="0 0 60 79" fill="none" xmlns="http://www.w3.org/2000/svg">
<mask id="path-1-inside-1_510_4435" fill="white">
<path fill-rule="evenodd" clip-rule="evenodd" d="M44.7067 0.585786C44.3316 0.210713 43.8229 0 43.2924 0H2C0.895431 0 0 0.895432 0 2V77C0 78.1046 0.895432 79 2 79H57.25C58.3546 79 59.25 78.1046 59.25 77V15.9576C59.25 15.4271 59.0393 14.9184 58.6642 14.5433L44.7067 0.585786Z"/>
</mask>
<path fill-rule="evenodd" clip-rule="evenodd" d="M44.7067 0.585786C44.3316 0.210713 43.8229 0 43.2924 0H2C0.895431 0 0 0.895432 0 2V77C0 78.1046 0.895432 79 2 79H57.25C58.3546 79 59.25 78.1046 59.25 77V15.9576C59.25 15.4271 59.0393 14.9184 58.6642 14.5433L44.7067 0.585786Z" fill="#F7F9FB"/>
<path d="M58.6642 14.5433L60.0784 13.1291L58.6642 14.5433ZM44.7067 0.585786L43.2924 2L44.7067 0.585786ZM2 2H43.2924V-2H2V2ZM2 77V2H-2V77H2ZM57.25 77H2V81H57.25V77ZM57.25 15.9576V77H61.25V15.9576H57.25ZM60.0784 13.1291L46.1209 -0.828428L43.2924 2L57.25 15.9576L60.0784 13.1291ZM61.25 15.9576C61.25 14.8967 60.8286 13.8793 60.0784 13.1291L57.25 15.9576H61.25ZM57.25 81C59.4591 81 61.25 79.2091 61.25 77H57.25V81ZM-2 77C-2 79.2091 -0.209135 81 2 81V77H2H-2ZM43.2924 2V2L46.1209 -0.828428C45.3707 -1.57857 44.3533 -2 43.2924 -2V2ZM2 -2C-0.209141 -2 -2 -0.209135 -2 2H2V2V-2Z" fill="#FF4747" mask="url(#path-1-inside-1_510_4435)"/>
<path d="M22.56 39.36C22.56 40.1067 22.38 40.8067 22.02 41.46C21.6733 42.1133 21.12 42.64 20.36 43.04C19.6133 43.44 18.6667 43.64 17.52 43.64H15.18V49H12.38V35.04H17.52C18.6 35.04 19.52 35.2267 20.28 35.6C21.04 35.9733 21.6067 36.4867 21.98 37.14C22.3667 37.7933 22.56 38.5333 22.56 39.36ZM17.4 41.38C18.1733 41.38 18.7467 41.2067 19.12 40.86C19.4933 40.5 19.68 40 19.68 39.36C19.68 38 18.92 37.32 17.4 37.32H15.18V41.38H17.4ZM29.428 35.04C30.8946 35.04 32.1813 35.3267 33.288 35.9C34.408 36.4733 35.268 37.2933 35.868 38.36C36.4813 39.4133 36.788 40.64 36.788 42.04C36.788 43.44 36.4813 44.6667 35.868 45.72C35.268 46.76 34.408 47.5667 33.288 48.14C32.1813 48.7133 30.8946 49 29.428 49H24.548V35.04H29.428ZM29.328 46.62C30.7946 46.62 31.928 46.22 32.728 45.42C33.528 44.62 33.928 43.4933 33.928 42.04C33.928 40.5867 33.528 39.4533 32.728 38.64C31.928 37.8133 30.7946 37.4 29.328 37.4H27.348V46.62H29.328ZM47.5039 35.04V37.3H41.6839V40.88H46.1439V43.1H41.6839V49H38.8839V35.04H47.5039Z" fill="#FF4747"/>
</svg>
