<svg width="15" height="15" viewBox="0 0 15 15" fill="none" xmlns="http://www.w3.org/2000/svg">
<g clip-path="url(#clip0_424_3066)">
<path d="M1.34863 6.56885L6.63504 8.77152C7.13258 8.97883 7.69231 8.97883 8.18986 8.77152L13.4763 6.56885" stroke="#1C1C1C" stroke-width="0.884307" stroke-linecap="round" stroke-linejoin="round"/>
<path d="M12.4656 3.53711H2.35927C1.80111 3.53711 1.34863 3.98959 1.34863 4.54775V12.1275C1.34863 12.6857 1.80111 13.1382 2.35927 13.1382H12.4656C13.0238 13.1382 13.4763 12.6857 13.4763 12.1275V4.54775C13.4763 3.98959 13.0238 3.53711 12.4656 3.53711Z" stroke="#1C1C1C" stroke-width="0.884307" stroke-linecap="round" stroke-linejoin="round"/>
<path d="M9.93892 3.53733V2.02138C9.93892 1.75334 9.83244 1.49628 9.64292 1.30675C9.45338 1.11722 9.19633 1.01074 8.92829 1.01074H5.89638C5.62834 1.01074 5.37128 1.11722 5.18175 1.30675C4.99222 1.49628 4.88574 1.75334 4.88574 2.02138V3.53733" stroke="#1C1C1C" stroke-width="0.884307" stroke-linecap="round" stroke-linejoin="round"/>
</g>
<defs>
<clipPath id="clip0_424_3066">
<rect width="14.1489" height="14.1489" fill="white" transform="translate(0.338867)"/>
</clipPath>
</defs>
</svg>
