<svg width="16" height="16" viewBox="0 0 16 16" fill="none" xmlns="http://www.w3.org/2000/svg">
<path d="M13.0769 4.76929H2.92308C2.41328 4.76929 2 5.18257 2 5.69236V13.077C2 13.5868 2.41328 14.0001 2.92308 14.0001H13.0769C13.5867 14.0001 14 13.5868 14 13.077V5.69236C14 5.18257 13.5867 4.76929 13.0769 4.76929Z" stroke="#6C6C6C" stroke-width="1.25" stroke-linecap="round" stroke-linejoin="round"/>
<path d="M10.7689 4.76923V2.92308C10.7689 2.67826 10.6717 2.44347 10.4986 2.27036C10.3255 2.09725 10.0907 2 9.84585 2H6.15355C5.90873 2 5.67394 2.09725 5.50083 2.27036C5.32772 2.44347 5.23047 2.67826 5.23047 2.92308V4.76923" stroke="#6C6C6C" stroke-width="1.25" stroke-linecap="round" stroke-linejoin="round"/>
</svg>
