<svg width="24" height="24" viewBox="0 0 24 24" fill="none" xmlns="http://www.w3.org/2000/svg">
<path d="M3.80371 20.0012L20.4716 4" stroke="#6C6C6C" stroke-width="1.5" stroke-linecap="round" stroke-linejoin="round"/>
<path d="M9.33301 18.2677C10.1962 18.5371 11.0957 18.6721 11.9999 18.6677C15.6446 18.73 19.3426 16.1698 21.6183 13.654C21.8638 13.384 21.9999 13.0322 21.9999 12.6673C21.9999 12.3024 21.8638 11.9506 21.6183 11.6806C20.7955 10.771 19.8809 9.94886 18.8893 9.22705" stroke="#6C6C6C" stroke-width="1.5" stroke-linecap="round" stroke-linejoin="round"/>
<path d="M16.5248 7.79563C15.1258 7.06988 13.5759 6.68315 12 6.66666C8.44419 6.60444 4.71058 9.11129 2.38152 11.6804C2.13603 11.9504 2 12.3022 2 12.6671C2 13.032 2.13603 13.3838 2.38152 13.6538C3.64373 15.0649 5.12321 16.2653 6.76406 17.2097" stroke="#6C6C6C" stroke-width="1.5" stroke-linecap="round" stroke-linejoin="round"/>
<path d="M9.33262 14.7299C8.85039 14.0609 8.62594 13.2402 8.70057 12.4189C8.77521 11.5976 9.1439 10.8308 9.73883 10.2597C10.3338 9.68857 11.1149 9.35146 11.9386 9.3104C12.7623 9.26934 13.5731 9.52708 14.2219 10.0362" stroke="#6C6C6C" stroke-width="1.5" stroke-linecap="round" stroke-linejoin="round"/>
<path d="M15.3336 12.6675C15.3336 13.1053 15.2474 13.5387 15.0798 13.9432C14.9123 14.3476 14.6667 14.7151 14.3572 15.0247C14.0476 15.3342 13.6802 15.5798 13.2757 15.7473C12.8713 15.9148 12.4378 16.0011 12 16.0011" stroke="#6C6C6C" stroke-width="1.5" stroke-linecap="round" stroke-linejoin="round"/>
</svg>
