<svg width="24" height="24" viewBox="0 0 24 24" fill="none" xmlns="http://www.w3.org/2000/svg">
<g clip-path="url(#clip0_1016_3367)">
<path d="M12.0003 5.25121C7.96932 5.18321 3.80032 8.00021 1.17932 10.8852C0.904199 11.1906 0.751953 11.5871 0.751953 11.9982C0.751953 12.4093 0.904199 12.8058 1.17932 13.1112C3.74332 15.9352 7.90032 18.8172 12.0003 18.7482C16.1003 18.8172 20.2583 15.9352 22.8243 13.1112C23.0994 12.8058 23.2517 12.4093 23.2517 11.9982C23.2517 11.5871 23.0994 11.1906 22.8243 10.8852C20.2003 8.00021 16.0313 5.18321 12.0003 5.25121Z" stroke="#AFAFAF" stroke-width="1.5" stroke-linecap="round" stroke-linejoin="round"/>
<path d="M15.75 12C15.7498 12.7417 15.5297 13.4666 15.1175 14.0831C14.7054 14.6997 14.1196 15.1802 13.4344 15.4639C12.7491 15.7475 11.9952 15.8217 11.2678 15.6768C10.5404 15.532 9.87234 15.1748 9.348 14.6503C8.82365 14.1258 8.4666 13.4576 8.32198 12.7302C8.17737 12.0028 8.25169 11.2489 8.53555 10.5637C8.81941 9.87857 9.30005 9.29295 9.91672 8.88094C10.5334 8.46893 11.2584 8.24902 12 8.24902C12.4926 8.24889 12.9804 8.34583 13.4355 8.5343C13.8905 8.72277 14.304 8.99908 14.6523 9.34743C15.0006 9.69579 15.2768 10.1094 15.4651 10.5645C15.6535 11.0196 15.7503 11.5074 15.75 12Z" stroke="#AFAFAF" stroke-width="1.5" stroke-linecap="round" stroke-linejoin="round"/>
</g>
<defs>
<clipPath id="clip0_1016_3367">
<rect width="24" height="24" fill="white"/>
</clipPath>
</defs>
</svg>
