<svg width="16" height="16" viewBox="0 0 16 16" fill="none" xmlns="http://www.w3.org/2000/svg">
<path d="M13.4235 5.91838V2.58504C13.4235 2.36403 13.3357 2.15207 13.1794 1.99579C13.0231 1.83951 12.8112 1.75171 12.5902 1.75171H2.59017C2.36916 1.75171 2.15719 1.83951 2.00091 1.99579C1.84463 2.15207 1.75684 2.36403 1.75684 2.58504V11.7517C1.75684 11.9727 1.84463 12.1847 2.00091 12.341C2.15719 12.4972 2.36916 12.585 2.59017 12.585H5.9235" stroke="#6C6C6C" stroke-width="1.25" stroke-linecap="round" stroke-linejoin="round"/>
<path d="M7.58887 10.9183C7.58887 11.356 7.67509 11.7895 7.8426 12.1939C8.01012 12.5983 8.25565 12.9658 8.56518 13.2753C8.87471 13.5848 9.24217 13.8304 9.64659 13.9979C10.051 14.1654 10.4845 14.2516 10.9222 14.2516C11.3599 14.2516 11.7934 14.1654 12.1978 13.9979C12.6022 13.8304 12.9697 13.5848 13.2792 13.2753C13.5888 12.9658 13.8343 12.5983 14.0018 12.1939C14.1693 11.7895 14.2555 11.356 14.2555 10.9183C14.2555 10.4806 14.1693 10.0471 14.0018 9.64268C13.8343 9.23826 13.5888 8.8708 13.2792 8.56127C12.9697 8.25174 12.6022 8.00621 12.1978 7.8387C11.7934 7.67118 11.3599 7.58496 10.9222 7.58496C10.4845 7.58496 10.051 7.67118 9.64659 7.8387C9.24217 8.00621 8.87471 8.25174 8.56518 8.56127C8.25565 8.8708 8.01012 9.23826 7.8426 9.64268C7.67509 10.0471 7.58887 10.4806 7.58887 10.9183Z" stroke="#6C6C6C" stroke-width="1.25" stroke-linecap="round" stroke-linejoin="round"/>
<path d="M12.3952 10.9183H10.9219V9.44556" stroke="#6C6C6C" stroke-linecap="round" stroke-linejoin="round"/>
</svg>
